<svg width="59" height="66" viewBox="0 0 59 66" fill="none" xmlns="http://www.w3.org/2000/svg">
<path d="M48.2785 10.1221C44.5025 6.45712 39.7356 3.98723 34.5711 3.01977C29.4066 2.05231 24.0726 2.63002 19.2329 4.68099C14.3932 6.73195 10.2615 10.1656 7.35208 14.5546C4.44265 18.9436 2.88396 24.0941 2.87 29.3652H2.87V29.5203L2.98129 62.6529C2.98203 62.8086 3.0287 62.9605 3.11542 63.0896C3.20214 63.2186 3.32502 63.319 3.46856 63.3781C3.61209 63.4372 3.76985 63.4522 3.92192 63.4214C4.07399 63.3906 4.21356 63.3153 4.32302 63.205L15.3165 52.1381C20.9183 55.7029 27.6393 57.0554 34.178 55.9336C40.7167 54.8118 46.6079 51.2955 50.7107 46.0657C54.8136 40.8359 56.8362 34.2646 56.3868 27.6244C55.9375 20.9842 53.0482 14.7475 48.2785 10.1221ZM29.6612 40.0599C27.6608 40.0612 25.705 39.4673 24.041 38.3534C22.3769 37.2395 21.0794 35.6557 20.3125 33.802C19.5456 31.9484 19.3437 29.9083 19.7323 27.9395C20.1209 25.9707 21.0826 24.1618 22.4958 22.7413C23.909 21.3209 25.7102 20.3527 27.6718 19.9592C29.6333 19.5657 31.6672 19.7646 33.5161 20.5306C35.365 21.2967 36.9461 22.5955 38.0594 24.263C39.1726 25.9305 39.7681 27.8917 39.7706 29.8987C39.773 31.2322 39.5133 32.5531 39.0064 33.7858C38.4994 35.0185 37.7552 36.1388 36.8162 37.0826C35.8772 38.0264 34.7619 38.7752 33.5342 39.2861C32.3065 39.797 30.9904 40.0599 29.6612 40.0599Z" fill="url(#paint0_radial_3_1493)" stroke="url(#paint1_radial_3_1493)" stroke-width="2.14925"/>
<defs>
<radialGradient id="paint0_radial_3_1493" cx="0" cy="0" r="1" gradientUnits="userSpaceOnUse" gradientTransform="translate(29.4997 63.1553) rotate(-90) scale(64.2931 192.588)">
<stop stop-color="#2A90EC"/>
<stop offset="0.385417" stop-color="#52B774"/>
<stop offset="0.741697" stop-color="#FCAF1B"/>
<stop offset="1" stop-color="#E8582A"/>
</radialGradient>
<radialGradient id="paint1_radial_3_1493" cx="0" cy="0" r="1" gradientUnits="userSpaceOnUse" gradientTransform="translate(29.4997 63.1553) rotate(-90) scale(64.2931 192.588)">
<stop stop-color="#2A90EC"/>
<stop offset="0.385417" stop-color="#52B774"/>
<stop offset="0.741697" stop-color="#FCAF1B"/>
<stop offset="1" stop-color="#E8582A"/>
</radialGradient>
</defs>
</svg>
